<?xml version="1.0" encoding="utf-8"?>
<!-- Generator: Adobe Illustrator 12.0.0, SVG Export Plug-In . SVG Version: 6.00 Build 51448)  -->
<!DOCTYPE svg PUBLIC "-//W3C//DTD SVG 1.1//EN" "http://www.w3.org/Graphics/SVG/1.1/DTD/svg11.dtd" [
	<!ENTITY ns_svg "http://www.w3.org/2000/svg">
	<!ENTITY ns_xlink "http://www.w3.org/1999/xlink">
]>
<svg  version="1.1" id="Layer_1" xmlns="&ns_svg;" xmlns:xlink="&ns_xlink;" width="1231.438" height="434.979"
	 viewBox="0 0 1231.438 434.979" overflow="visible" enable-background="new 0 0 1231.438 434.979" xml:space="preserve">
<polygon display="none" fill="#048284" stroke="#000000" stroke-width="2" points="1043.744,337.16 882.387,336.846 
	882.387,336.592 365.741,336.592 365.741,336.844 203.695,337.16 219.945,354.493 365.741,354.494 365.741,354.73 882.387,354.73 
	882.387,354.494 1027.494,354.493 "/>
<g>
	<g>
		<polygon fill="#048284" stroke="#000000" stroke-width="2" points="1037.719,335.489 1019.33,354.439 1019.33,354.489 
			212.109,354.489 212.109,354.439 193.719,335.489 		"/>
	</g>
	<g>
		<g>
			<rect x="364.904" y="59.852" fill="#0402FC" stroke="#000000" stroke-width="1.1231" width="4.293" height="188.745"/>
			<rect x="393.654" y="80.055" fill="#0402FC" stroke="#000000" stroke-width="1.0613" width="4.293" height="168.542"/>
			<rect x="451.154" y="110.071" fill="#0402FC" stroke="#000000" stroke-width="0.9621" width="4.293" height="138.525"/>
			<rect x="479.904" y="122.482" fill="#0402FC" stroke="#000000" stroke-width="0.918" width="4.293" height="126.115"/>
			<rect x="508.654" y="132.006" fill="#0402FC" stroke="#000000" stroke-width="0.8827" width="4.293" height="116.59"/>
			<rect x="537.404" y="138.933" fill="#0402FC" stroke="#000000" stroke-width="0.856" width="4.293" height="109.664"/>
			<rect x="566.154" y="144.128" fill="#0402FC" stroke="#000000" stroke-width="0.8355" width="4.293" height="104.469"/>
			<rect x="594.904" y="147.014" fill="#0402FC" stroke="#000000" stroke-width="0.8239" width="4.293" height="101.583"/>
			<rect x="422.404" y="96.218" fill="#0402FC" stroke="#000000" stroke-width="1.0091" width="4.293" height="152.379"/>
		</g>
		<g>
			<rect x="860.397" y="59.852" fill="#0402FC" stroke="#000000" stroke-width="1.1231" width="4.293" height="188.745"/>
			<rect x="831.647" y="80.055" fill="#0402FC" stroke="#000000" stroke-width="1.0613" width="4.293" height="168.542"/>
			<rect x="774.147" y="110.071" fill="#0402FC" stroke="#000000" stroke-width="0.9621" width="4.293" height="138.525"/>
			<rect x="745.397" y="122.482" fill="#0402FC" stroke="#000000" stroke-width="0.918" width="4.293" height="126.114"/>
			<rect x="716.647" y="132.006" fill="#0402FC" stroke="#000000" stroke-width="0.8827" width="4.293" height="116.591"/>
			<rect x="687.897" y="138.934" fill="#0402FC" stroke="#000000" stroke-width="0.856" width="4.293" height="109.663"/>
			<rect x="659.147" y="144.128" fill="#0402FC" stroke="#000000" stroke-width="0.8355" width="4.293" height="104.469"/>
			<rect x="630.397" y="147.014" fill="#0402FC" stroke="#000000" stroke-width="0.8239" width="4.293" height="101.583"/>
			<rect x="802.897" y="96.218" fill="#0402FC" stroke="#000000" stroke-width="1.0091" width="4.293" height="152.379"/>
		</g>
		<rect x="612.796" y="146.746" fill="#0402FC" stroke="#000000" stroke-width="0.7969" width="4" height="102.009"/>
	</g>
	<rect x="287.904" y="97.249" fill="#0402FC" stroke="#000000" stroke-width="0.9932" width="4.293" height="147.618"/>
	<rect x="259.25" y="129.717" fill="#0402FC" stroke="#000000" stroke-width="0.8772" width="4.294" height="115.15"/>
	<rect x="230.598" y="156.096" fill="#0402FC" stroke="#000000" stroke-width="0.7702" width="4.294" height="88.771"/>
	<rect x="201.946" y="177.403" fill="#0402FC" stroke="#000000" stroke-width="0.6714" width="4.293" height="67.464"/>
	<rect x="173.293" y="195.666" fill="#0402FC" stroke="#000000" stroke-width="0.5734" width="4.293" height="49.201"/>
	<rect x="144.64" y="210.885" fill="#0402FC" stroke="#000000" stroke-width="0.4765" width="4.294" height="33.982"/>
	<rect x="115.988" y="224.076" fill="#0402FC" stroke="#000000" stroke-width="0.3727" width="4.294" height="20.791"/>
	<rect x="87.335" y="233.715" fill="#0402FC" stroke="#000000" stroke-width="0.273" width="4.293" height="11.152"/>
	<path fill="none" stroke="#000000" stroke-width="5" d="M328.382,28.34C289.744,131.989,175.668,212.945,73.246,239.932"/>
	<rect x="26.994" y="302.337" fill="#C4C2C4" stroke="#000000" stroke-width="2" width="31.162" height="16.984"/>
	<polygon fill="#FCFE04" stroke="#000000" stroke-width="2" points="38.661,259.508 38.661,244.295 32.606,244.295 32.606,302.042 
		52.543,302.042 52.543,259.508 	"/>
	<polygon fill="#FFFFFF" stroke="#000000" stroke-width="2" points="75.085,235.639 78.765,244.225 49.327,244.225 	"/>
	<rect x="44.966" y="255.684" width="2.707" height="3.5"/>
	<rect x="41.445" y="244.463" fill="#048204" stroke="#000000" stroke-width="2" width="1147" height="11"/>
	<rect x="939.242" y="97.249" fill="#0402FC" stroke="#000000" stroke-width="0.9932" width="4.293" height="147.618"/>
	<rect x="967.894" y="129.717" fill="#0402FC" stroke="#000000" stroke-width="0.8772" width="4.294" height="115.15"/>
	<rect x="996.546" y="156.096" fill="#0402FC" stroke="#000000" stroke-width="0.7702" width="4.294" height="88.771"/>
	<rect x="1025.2" y="177.403" fill="#0402FC" stroke="#000000" stroke-width="0.6714" width="4.293" height="67.464"/>
	<rect x="1053.852" y="195.666" fill="#0402FC" stroke="#000000" stroke-width="0.5734" width="4.293" height="49.201"/>
	<rect x="1082.504" y="210.885" fill="#0402FC" stroke="#000000" stroke-width="0.4765" width="4.294" height="33.982"/>
	<rect x="1111.157" y="224.076" fill="#0402FC" stroke="#000000" stroke-width="0.3727" width="4.294" height="20.791"/>
	<rect x="1139.81" y="233.715" fill="#0402FC" stroke="#000000" stroke-width="0.273" width="4.293" height="11.152"/>
	<rect x="1173.283" y="302.337" fill="#C4C2C4" stroke="#000000" stroke-width="2" width="31.162" height="16.984"/>
	<polygon fill="#FCFE04" stroke="#000000" stroke-width="2" points="1192.778,259.508 1192.778,244.295 1198.833,244.295 
		1198.833,302.042 1178.895,302.042 1178.895,259.508 	"/>
	<rect x="1183.765" y="255.684" width="2.707" height="3.5"/>
	<path fill="none" stroke="#000000" stroke-width="5" d="M330.719,29.489c0,0,120,117,286,117S903.056,28.34,903.056,28.34
		c38.639,103.649,152.714,184.605,255.137,211.592"/>
	<g>
		<rect x="319.106" y="255.422" fill="#FC0204" stroke="#000000" stroke-width="1.8659" width="18" height="76.012"/>
		<g>
			<rect x="324.606" y="358.545" fill="#C4C2C4" stroke="#000000" stroke-width="1.8537" width="7" height="60"/>
			<rect x="335.106" y="358.545" fill="#C4C2C4" stroke="#000000" stroke-width="1.8866" width="7" height="60"/>
			<g>
				<rect x="314.106" y="358.545" fill="#C4C2C4" stroke="#000000" stroke-width="2.0284" width="7" height="60"/>
				<rect x="314.106" y="331.101" fill="#C4C2C4" stroke="#000000" stroke-width="2" width="28" height="28"/>
			</g>
		</g>
		<polygon fill="#FC0204" stroke="#000000" stroke-width="2" points="323.763,16.434 332.45,16.434 336.792,244.434 319.42,244.434 
					"/>
		<rect x="318.937" y="243.978" fill="#006B33" stroke="#C4C2C4" stroke-width="2" width="18.339" height="11.972"/>
	</g>
	<g>
		<rect x="894.333" y="255.422" fill="#FC0204" stroke="#000000" stroke-width="1.8659" width="18" height="76.012"/>
		<g>
			<rect x="899.833" y="358.545" fill="#C4C2C4" stroke="#000000" stroke-width="1.8537" width="7" height="60"/>
			<rect x="889.333" y="358.545" fill="#C4C2C4" stroke="#000000" stroke-width="1.8866" width="7" height="60"/>
			<g>
				<rect x="910.333" y="358.545" fill="#C4C2C4" stroke="#000000" stroke-width="2.0284" width="7" height="60"/>
				<rect x="889.333" y="331.101" fill="#C4C2C4" stroke="#000000" stroke-width="2" width="28" height="28"/>
			</g>
		</g>
		<polygon fill="#FC0204" stroke="#000000" stroke-width="2" points="907.675,16.434 898.989,16.434 894.647,244.434 
			912.018,244.434 		"/>
		<rect x="894.163" y="243.978" fill="#006B33" stroke="#C4C2C4" stroke-width="2" width="18.339" height="11.972"/>
	</g>
	<polygon fill="#FFFFFF" stroke="#000000" stroke-width="2" points="1156.353,235.639 1152.673,244.225 1182.112,244.225 	"/>
	<polyline fill="none" stroke="#000000" stroke-width="2" points="52.109,280.439 110.109,280.439 159.449,331.77 190.109,331.77 
		193.719,335.489 212.109,354.439 	"/>
	<polyline fill="none" stroke="#000000" stroke-width="2" points="1179.33,280.439 1121.33,280.439 1071.989,331.77 1041.33,331.77 
		1037.719,335.489 1019.33,354.439 	"/>
</g>
</svg>
