<svg height="512pt" viewBox="-95 0 512 512.00178" width="512pt" xmlns="http://www.w3.org/2000/svg"><path d="m293.921875 29.074219c-6.71875-2.671875-12.820313-11.707031-12.820313-19.035157 0-5.550781-4.488281-10.039062-10.042968-10.039062h-220.859375c-5.554688 0-10.039063 4.597656-10.039063 10.148438 0 7.230468-6.105468 16.253906-12.820312 18.9375-16.617188 6.644531-27.339844 22.484374-27.339844 40.367187v376.160156l.222656-.074219c1.132813 16.625 11.445313 31.113282 27.105469 37.378907 6.726563 2.679687 12.828125 11.714843 12.828125 19.042969 0 5.554687 4.488281 10.039062 10.039062 10.039062h220.863282c5.554687 0 10.042968-4.597656 10.042968-10.148438 0-7.226562 6.101563-16.253906 12.820313-18.933593 16.601563-6.648438 27.335937-22.488281 27.335937-40.367188v-373.097656c0-17.882813-10.722656-33.722656-27.335937-40.378906zm-273.839844 229.144531 281.097657-93.695312v119.386718l-281.097657 93.695313zm281.097657 184.328125c0 9.628906-5.773438 18.164063-14.710938 21.726563-11.191406 4.46875-20.480469 15.589843-23.972656 27.648437h-203.722656c-3.484376-12.019531-12.78125-23.171875-23.996094-27.648437-8.933594-3.5625-14.707032-12.097657-14.707032-21.726563v-3.621094l281.097657-93.699219v97.320313zm0-118.492187-281.097657 93.699218v-18.984375l281.097657-93.699219zm-281.097657-87v-18.992188l281.097657-93.699219v18.988281zm0-40.15625v-127.445313c0-9.628906 5.773438-18.164063 14.707031-21.726563 11.195313-4.46875 20.480469-15.589843 23.972657-27.648437h203.726562c3.484375 12.019531 12.78125 23.171875 23.996094 27.648437 8.933594 3.5625 14.707031 12.097657 14.707031 21.726563v33.742187zm0 0"/><path d="m100.394531 60.234375h-50.195312c-5.554688 0-10.039063 4.488281-10.039063 10.039063 0 5.554687 4.484375 10.039062 10.039063 10.039062h50.195312c5.550781 0 10.039063-4.484375 10.039063-10.039062 0-5.550782-4.488282-10.039063-10.039063-10.039063zm0 0"/><path d="m271.0625 60.234375h-130.511719c-5.550781 0-10.039062 4.488281-10.039062 10.039063 0 5.554687 4.488281 10.039062 10.039062 10.039062h130.511719c5.550781 0 10.039062-4.484375 10.039062-10.039062 0-5.550782-4.488281-10.039063-10.039062-10.039063zm0 0"/><path d="m50.199219 461.804688h50.195312c5.550781 0 10.039063-4.488282 10.039063-10.039063 0-5.554687-4.488282-10.039063-10.039063-10.039063h-50.195312c-5.554688 0-10.039063 4.484376-10.039063 10.039063 0 5.550781 4.484375 10.039063 10.039063 10.039063zm0 0"/><path d="m140.550781 461.804688h130.511719c5.550781 0 10.039062-4.488282 10.039062-10.039063 0-5.554687-4.488281-10.039063-10.039062-10.039063h-130.511719c-5.550781 0-10.039062 4.484376-10.039062 10.039063 0 5.550781 4.488281 10.039063 10.039062 10.039063zm0 0"/></svg>