<svg xmlns="http://www.w3.org/2000/svg" xmlns:xlink="http://www.w3.org/1999/xlink" viewBox="0 0 60 75" version="1.1" x="0px" y="0px"><title>016-North Point Arrow</title><desc>Created with Sketch.</desc><g stroke="none" stroke-width="1" fill="none" fill-rule="evenodd" stroke-linecap="round"><g transform="translate(1.000000, 1.000000)" stroke="#ff7455" stroke-width="4"><path d="M58,29 C58,45.016 45.016,58 29,58 C12.984,58 0,45.016 0,29 C0,12.984 12.984,0 29,0 C45.016,0 58,12.984 58,29 L58,29 Z"/><path d="M29,1 L29,58"/><path d="M5,43 L29,1"/><path d="M29,1 L53,43"/><path d="M5,43 C16.083,33.083 26.25,33 29,33"/><path d="M53,43 C41.917,33.083 31.75,33 29,33"/></g></g><text x="0" y="75" fill="#ff7455" font-size="5px" font-weight="bold" font-family="'Helvetica Neue', Helvetica, Arial-Unicode, Arial, Sans-serif">Created by Creaticca Creative Agency</text><text x="0" y="80" fill="#ff7455" font-size="5px" font-weight="bold" font-family="'Helvetica Neue', Helvetica, Arial-Unicode, Arial, Sans-serif">from the Noun Project</text></svg>